<?xml version="1.0" encoding="utf-8"?>
<!-- Generator: Adobe Illustrator 19.1.1, SVG Export Plug-In . SVG Version: 6.00 Build 0)  -->
<svg version="1.1" id="Layer_1" xmlns="http://www.w3.org/2000/svg" xmlns:xlink="http://www.w3.org/1999/xlink" x="0px" y="0px"
	 viewBox="0 0 150.6 172.3" enable-background="new 0 0 150.6 172.3" xml:space="preserve">
<g>
	<path fill="#58595B" d="M75.3,0C33.7,0,0,33.7,0,75.3c0,41.6,33.7,75.3,75.3,75.3s75.3-33.7,75.3-75.3C150.6,33.7,116.9,0,75.3,0z
		 M75.3,96.8c-11.9,0-21.5-9.6-21.5-21.5s9.6-21.5,21.5-21.5s21.5,9.6,21.5,21.5S87.2,96.8,75.3,96.8z"/>
	<path fill="#B9A8C4" stroke="#58595B" stroke-width="5" stroke-miterlimit="10" d="M75.3,139.8c-14,0-27.4-2.1-40-5.9l33.4,33.2
		c3.6,3.6,9.7,3.6,13.3,0l33.4-33.2C102.7,137.7,89.3,139.8,75.3,139.8z"/>
	<path fill="#B9A8C4" d="M75.3,4.8c-39.2,0-71,31.8-71,71s31.8,71,71,71s71-31.8,71-71S114.5,4.8,75.3,4.8z M75.3,96.1
		C64.1,96.1,55,87,55,75.8s9.1-20.3,20.3-20.3s20.3,9.1,20.3,20.3S86.5,96.1,75.3,96.1z"/>
</g>
</svg>
